<svg width="578" height="578" viewBox="0 0 578 578" fill="none" xmlns="http://www.w3.org/2000/svg">
<path d="M527.772 241.731C471.428 145.228 318.594 179.596 287.382 132.663C271.394 108.664 253.511 80.7697 227.57 66.285C202.843 52.413 174.175 47.5463 149.182 49.3728C59.927 55.9042 22.0912 135.761 39.2346 223.455C62.1234 340.43 165.817 459.926 289 460.758C353.435 461.244 415.004 438.124 463.209 405.606L464.284 404.877C512.489 372.059 570.798 315.403 527.772 241.731Z" fill="#C9F1FF"/>
<path opacity="0.7" d="M527.772 241.731C471.428 145.228 318.594 179.596 287.382 132.663C271.394 108.664 253.511 80.7697 227.57 66.285C202.843 52.413 174.175 47.5463 149.182 49.3728C59.927 55.9042 22.0912 135.761 39.2346 223.455C62.1234 340.43 165.817 459.926 289 460.758C353.435 461.244 415.004 438.124 463.209 405.606L464.284 404.877C512.489 372.059 570.798 315.403 527.772 241.731Z" fill="white"/>
<path d="M90.3877 248.748H84.1221C77.3986 248.748 70.9505 251.419 66.1962 256.173C61.442 260.927 58.7711 267.376 58.7711 274.099V413.212C58.7711 419.936 61.442 426.384 66.1962 431.138C70.9505 435.892 77.3986 438.563 84.1221 438.563H170.082C176.806 438.563 183.254 435.892 188.008 431.138C192.762 426.384 195.433 419.936 195.433 413.212" stroke="#808080" stroke-width="1.10311" stroke-linecap="round" stroke-linejoin="round" stroke-dasharray="4.41 4.41"/>
<path d="M188.428 117.484V90.0062C188.428 85.8947 190.059 81.951 192.963 79.0405C195.867 76.13 199.807 74.4903 203.918 74.4811H315.704C319.821 74.4811 323.77 76.1168 326.682 79.0283C329.593 81.9398 331.229 85.8887 331.229 90.0062" stroke="#808080" stroke-width="1.10311" stroke-linecap="round" stroke-linejoin="round" stroke-dasharray="4.41 4.41"/>
<path d="M289 545.817C411.274 545.817 510.397 531.967 510.397 514.882C510.397 497.798 411.274 483.948 289 483.948C166.726 483.948 67.6029 497.798 67.6029 514.882C67.6029 531.967 166.726 545.817 289 545.817Z" fill="#C9F1FF"/>
<path opacity="0.5" d="M289 545.817C411.274 545.817 510.397 531.967 510.397 514.882C510.397 497.798 411.274 483.948 289 483.948C166.726 483.948 67.6029 497.798 67.6029 514.882C67.6029 531.967 166.726 545.817 289 545.817Z" fill="white"/>
<path d="M497.704 154.349V362.498C497.704 369.303 495.002 375.829 490.192 380.641C485.382 385.453 478.857 388.159 472.053 388.162H105.947C99.1431 388.159 92.6186 385.453 87.8083 380.641C82.998 375.829 80.2958 369.303 80.2958 362.498V154.349C80.2958 153.736 80.2958 153.193 80.3767 152.546C80.8274 146.071 83.717 140.008 88.4626 135.579C93.2083 131.151 99.4567 128.688 105.947 128.686H472.053C478.551 128.689 484.806 131.159 489.552 135.596C494.299 140.034 497.184 146.109 497.623 152.592C497.681 153.147 497.704 153.748 497.704 154.349Z" fill="white" stroke="#263238" stroke-width="1.10311" stroke-linecap="round" stroke-linejoin="round"/>
<path d="M92.7806 162.164H486.526V354.441C486.526 360.818 483.992 366.934 479.483 371.443C474.974 375.953 468.858 378.486 462.481 378.486H116.837C110.46 378.486 104.344 375.953 99.8347 371.443C95.3254 366.934 92.7921 360.818 92.7921 354.441V162.164H92.7806Z" fill="#263238"/>
<path opacity="0.2" d="M486.537 162.164V354.441C486.571 360.783 484.085 366.878 479.626 371.387C475.167 375.896 469.1 378.449 462.758 378.486H116.56C110.218 378.449 104.151 375.896 99.6918 371.387C95.2327 366.878 92.7468 360.783 92.7806 354.441V162.164H486.537Z" fill="white"/>
<path d="M497.623 152.592H80.3767C80.8274 146.117 83.717 140.054 88.4626 135.626C93.2083 131.198 99.4567 128.734 105.947 128.732H472.053C478.543 128.734 484.792 131.198 489.537 135.626C494.283 140.054 497.173 146.117 497.623 152.592Z" fill="#008CFF" stroke="#263238" stroke-width="1.10311" stroke-miterlimit="10"/>
<path d="M131.645 140.616C131.645 141.514 131.379 142.393 130.88 143.14C130.38 143.887 129.671 144.469 128.841 144.813C128.011 145.157 127.097 145.247 126.216 145.072C125.335 144.896 124.525 144.464 123.89 143.828C123.254 143.193 122.822 142.383 122.646 141.502C122.471 140.621 122.561 139.707 122.905 138.877C123.249 138.047 123.831 137.338 124.578 136.838C125.325 136.339 126.204 136.073 127.102 136.073C128.307 136.073 129.463 136.551 130.315 137.403C131.167 138.255 131.645 139.411 131.645 140.616Z" fill="#263238"/>
<path d="M150.858 140.616C150.858 141.514 150.592 142.393 150.092 143.14C149.593 143.887 148.884 144.469 148.053 144.813C147.223 145.157 146.31 145.247 145.429 145.072C144.547 144.896 143.738 144.464 143.102 143.828C142.467 143.193 142.034 142.383 141.859 141.502C141.684 140.621 141.774 139.707 142.118 138.877C142.462 138.047 143.044 137.338 143.791 136.838C144.538 136.339 145.416 136.073 146.315 136.073C147.52 136.073 148.675 136.551 149.527 137.403C150.379 138.255 150.858 139.411 150.858 140.616Z" fill="#263238"/>
<path d="M165.528 145.159C168.037 145.159 170.071 143.125 170.071 140.616C170.071 138.107 168.037 136.073 165.528 136.073C163.019 136.073 160.985 138.107 160.985 140.616C160.985 143.125 163.019 145.159 165.528 145.159Z" fill="#263238"/>
<path d="M486.526 162.164V354.441C486.526 360.818 483.992 366.934 479.483 371.443C474.974 375.953 468.858 378.486 462.481 378.486H116.837C111.271 378.485 105.878 376.553 101.578 373.02C97.2772 369.487 94.3356 364.571 93.2545 359.111V359.042C92.9607 357.518 92.8136 355.97 92.8153 354.418V162.164H486.526Z" stroke="#263238" stroke-width="1.10311" stroke-miterlimit="10"/>
<path d="M486.156 191.896C484.47 190.949 482.677 190.208 480.815 189.688L478.653 180.035H469.475L467.336 189.688C465.464 190.199 463.662 190.94 461.972 191.896L453.684 186.59L447.199 193.052L452.412 201.341C451.458 203.031 450.716 204.832 450.204 206.704L440.552 208.843V218.022L450.204 220.183C450.71 222.065 451.452 223.875 452.412 225.57L447.106 233.917L453.603 240.402L461.938 235.096C463.624 236.053 465.421 236.798 467.29 237.315L469.44 246.956H478.584L480.734 237.315C482.597 236.793 484.391 236.048 486.075 235.096L486.503 235.373V191.665L486.156 191.896ZM474.087 225.42C471.741 225.42 469.447 224.724 467.497 223.42C465.546 222.117 464.026 220.264 463.128 218.096C462.231 215.928 461.997 213.542 462.455 211.241C462.914 208.94 464.045 206.827 465.705 205.169C467.365 203.51 469.479 202.382 471.78 201.925C474.082 201.469 476.467 201.706 478.634 202.605C480.801 203.505 482.653 205.027 483.955 206.978C485.256 208.93 485.95 211.225 485.948 213.571C485.948 215.128 485.641 216.67 485.045 218.108C484.448 219.546 483.575 220.853 482.473 221.954C481.372 223.054 480.064 223.927 478.625 224.521C477.186 225.116 475.644 225.422 474.087 225.42Z" fill="#263238"/>
<path d="M320.732 201.202V181.85L300.387 177.33C299.289 173.399 297.737 169.609 295.763 166.036L298.225 162.164H202.161L204.531 165.932C202.533 169.489 200.98 173.278 199.907 177.215L179.55 181.746V201.144L199.907 205.687C200.98 209.653 202.532 213.473 204.531 217.062L193.353 234.645L207.051 248.332L224.622 237.142C228.187 239.147 231.979 240.719 235.916 241.824L240.448 262.111H259.753L264.308 241.777C268.233 240.667 272.012 239.096 275.567 237.096L293.15 248.286L306.837 234.599L295.728 217.016C297.697 213.449 299.249 209.667 300.352 205.745L320.732 201.202ZM250.216 216.53C245.271 216.53 240.436 215.064 236.325 212.316C232.213 209.569 229.008 205.664 227.115 201.095C225.223 196.526 224.728 191.498 225.692 186.648C226.657 181.798 229.039 177.342 232.535 173.845C236.032 170.348 240.488 167.967 245.338 167.002C250.188 166.037 255.216 166.533 259.785 168.425C264.354 170.318 268.259 173.523 271.007 177.634C273.754 181.746 275.22 186.581 275.22 191.526C275.222 194.81 274.576 198.062 273.32 201.097C272.064 204.131 270.222 206.888 267.9 209.21C265.578 211.532 262.821 213.374 259.787 214.63C256.752 215.886 253.5 216.532 250.216 216.53Z" fill="#263238"/>
<path d="M192.335 334.084L193.156 318.721L177.238 314.235C176.499 311.078 175.405 308.015 173.978 305.103L183.596 291.601L173.284 280.168L158.881 288.26C156.127 286.528 153.183 285.12 150.107 284.064L147.355 267.741L132.004 267.036L127.565 283C124.402 283.71 121.336 284.796 118.432 286.237L104.942 276.631L93.4857 286.931L101.647 301.346C99.8974 304.087 98.4846 307.029 97.4393 310.109L92.8153 310.872V331.68L96.1908 332.627C96.8911 335.795 97.9741 338.865 99.416 341.771L92.7806 351.077L93.2199 359.042V359.111L100.075 366.706L114.502 358.557C117.25 360.324 120.205 361.749 123.299 362.799L126.004 378.474L126.131 379.133L141.483 379.943L141.887 378.474L145.922 363.99C149.099 363.278 152.18 362.192 155.101 360.753L168.568 370.348L180.012 360.059L171.92 345.632C173.654 342.895 175.047 339.956 176.07 336.882L192.335 334.084ZM151.563 310.097C148.934 307.172 145.495 305.093 141.684 304.122C137.872 303.151 133.858 303.333 130.15 304.644C126.442 305.955 123.205 308.336 120.851 311.487C118.496 314.638 117.129 318.416 116.921 322.344C116.714 326.271 117.677 330.172 119.687 333.553C121.698 336.934 124.666 339.642 128.216 341.336C131.766 343.03 135.738 343.632 139.631 343.068C143.523 342.503 147.161 340.797 150.083 338.165C153.986 334.639 156.332 329.711 156.61 324.46C156.887 319.208 155.072 314.06 151.563 310.143V310.097Z" fill="#263238"/>
<path d="M315.126 311.184C315.72 308.805 316.034 306.364 316.062 303.912L327.102 298.132L324.05 286.931L311.588 287.509C310.326 285.415 308.825 283.475 307.115 281.729L310.802 269.81L300.745 264.03L292.329 273.209C289.954 272.636 287.524 272.326 285.081 272.284L279.301 261.244L268.111 264.285L268.701 276.758C266.607 278.02 264.667 279.521 262.921 281.232L250.991 277.544L245.211 287.59L254.459 295.994C253.861 298.364 253.554 300.798 253.545 303.242L242.483 309.022L245.534 320.212L258.019 319.622C259.257 321.727 260.752 323.668 262.47 325.402L258.759 337.263L268.828 343.043L277.197 333.934C279.575 334.532 282.017 334.839 284.468 334.847L290.248 345.898L301.439 342.858L300.941 332.2L300.861 330.373C302.984 329.123 304.948 327.621 306.71 325.9L318.628 329.599L323.553 320.998L324.385 319.542L315.126 311.184ZM288.688 317.981C285.818 318.772 282.778 318.694 279.953 317.755C277.128 316.816 274.646 315.06 272.821 312.708C270.996 310.357 269.91 307.516 269.701 304.546C269.493 301.577 270.171 298.613 271.65 296.029C273.128 293.445 275.341 291.359 278.007 290.035C280.673 288.711 283.672 288.208 286.624 288.59C289.576 288.973 292.348 290.224 294.588 292.184C296.829 294.144 298.436 296.725 299.207 299.601C300.235 303.432 299.706 307.515 297.735 310.959C295.765 314.402 292.512 316.926 288.688 317.981Z" fill="#263238"/>
<path d="M443.118 330.882L445.661 315.507L430.101 309.253C429.748 305.976 428.999 302.755 427.87 299.658L439.072 287.185L430.009 274.469L414.565 281.024C412.001 278.968 409.198 277.229 406.218 275.845L405.317 259.094L389.942 256.551L383.642 272.041C380.379 272.425 377.172 273.181 374.082 274.296L361.574 263.094L348.915 272.157L355.482 287.59C353.674 289.845 352.105 292.282 350.8 294.861C350.626 295.219 350.441 295.578 350.28 295.936L333.541 296.861L330.986 312.212L333.506 313.23L346.546 318.49C346.902 321.751 347.651 324.957 348.777 328.038L337.552 340.592L346.627 353.308L362.059 346.719C364.615 348.793 367.414 350.547 370.394 351.944L371.261 368.614L386.624 371.157L392.913 355.782C396.182 355.425 399.397 354.672 402.485 353.539L414.969 364.741L427.685 355.667L421.119 340.222C423.211 337.656 424.978 334.841 426.379 331.841L443.118 330.882ZM399.999 330.188C396.765 332.509 392.915 333.818 388.936 333.951C384.957 334.083 381.029 333.033 377.647 330.932C374.266 328.832 371.583 325.776 369.938 322.15C368.294 318.525 367.761 314.494 368.408 310.566C369.055 306.638 370.852 302.99 373.572 300.083C376.293 297.177 379.814 295.142 383.69 294.237C387.567 293.332 391.625 293.597 395.351 294.998C399.077 296.399 402.304 298.874 404.623 302.109C407.73 306.449 408.986 311.845 408.115 317.111C407.243 322.377 404.316 327.081 399.976 330.188H399.999Z" fill="#263238"/>
<path d="M234.76 217.062H113.866C105.496 217.062 98.7108 223.847 98.7108 232.217V399.595C98.7108 407.965 105.496 414.75 113.866 414.75H234.76C243.13 414.75 249.916 407.965 249.916 399.595V232.217C249.916 223.847 243.13 217.062 234.76 217.062Z" fill="#0084FF" stroke="#263238" stroke-width="1.10311" stroke-miterlimit="10"/>
<path opacity="0.2" d="M234.76 217.062H113.866C105.496 217.062 98.7108 223.847 98.7108 232.217V399.595C98.7108 407.965 105.496 414.75 113.866 414.75H234.76C243.13 414.75 249.916 407.965 249.916 399.595V232.217C249.916 223.847 243.13 217.062 234.76 217.062Z" fill="black"/>
<path d="M263.984 247.153V414.53C263.986 416.521 263.595 418.493 262.834 420.333C262.073 422.173 260.957 423.845 259.549 425.254C258.142 426.662 256.471 427.78 254.631 428.542C252.792 429.304 250.82 429.697 248.829 429.697H127.935C125.944 429.695 123.974 429.302 122.136 428.539C120.298 427.776 118.628 426.658 117.222 425.25C115.815 423.841 114.7 422.17 113.94 420.331C113.18 418.491 112.789 416.52 112.791 414.53V247.153C112.791 243.135 114.386 239.282 117.226 236.441C120.065 233.599 123.917 232.001 127.935 231.998H248.829C252.848 231.998 256.703 233.594 259.545 236.436C262.387 239.279 263.984 243.133 263.984 247.153Z" fill="white" stroke="#263238" stroke-width="1.10311" stroke-linecap="round" stroke-linejoin="round"/>
<path d="M263.984 247.153V256.112H112.791V247.153C112.791 243.135 114.386 239.282 117.226 236.441C120.065 233.599 123.917 232.001 127.935 231.998H248.829C252.848 231.998 256.703 233.594 259.545 236.436C262.387 239.279 263.984 243.133 263.984 247.153Z" fill="#0084FF" stroke="#263238" stroke-width="1.10311" stroke-miterlimit="10"/>
<path d="M164.21 266.493H127.01V272.735H164.21V266.493Z" fill="#0084FF"/>
<path d="M164.21 322.432H127.01V328.674H164.21V322.432Z" fill="#0084FF"/>
<path d="M164.21 373.157H127.01V379.399H164.21V373.157Z" fill="#0084FF"/>
<path d="M232.657 281.948H127.01V286.526H232.657V281.948Z" fill="#263238"/>
<path d="M213.606 290.699H127.01V295.162H213.606V290.699Z" fill="#263238"/>
<path d="M224.946 299.312H127.01V303.774H224.946V299.312Z" fill="#263238"/>
<path d="M224.946 307.912H127.01V312.374H224.946V307.912Z" fill="#263238"/>
<path d="M232.657 332.674H127.01V337.251H232.657V332.674Z" fill="#263238"/>
<path d="M213.606 341.425H127.01V345.887H213.606V341.425Z" fill="#263238"/>
<path d="M224.946 350.037H127.01V354.499H224.946V350.037Z" fill="#263238"/>
<path d="M232.657 388.37H127.01V392.948H232.657V388.37Z" fill="#263238"/>
<path d="M213.606 397.132H127.01V401.594H213.606V397.132Z" fill="#263238"/>
<path d="M224.946 405.744H127.01V410.207H224.946V405.744Z" fill="#263238"/>
<path d="M434.39 115.935V183.584C434.39 185.958 433.922 188.309 433.014 190.501C432.105 192.694 430.773 194.687 429.094 196.365C427.415 198.043 425.422 199.373 423.228 200.281C421.035 201.188 418.684 201.654 416.31 201.653H260.505C258.131 201.654 255.78 201.188 253.587 200.281C251.393 199.373 249.4 198.043 247.721 196.365C246.042 194.687 244.71 192.694 243.801 190.501C242.893 188.309 242.425 185.958 242.425 183.584V115.935C242.428 111.141 244.334 106.544 247.724 103.154C251.114 99.7643 255.711 97.8585 260.505 97.8554H416.31C421.105 97.8554 425.704 99.7602 429.095 103.151C432.485 106.541 434.39 111.14 434.39 115.935Z" fill="white" stroke="#222221" stroke-width="1.10311" stroke-miterlimit="10"/>
<path d="M434.39 115.935V117.484H242.425V115.935C242.428 111.141 244.334 106.544 247.724 103.154C251.114 99.7643 255.711 97.8585 260.505 97.8554H416.31C421.105 97.8554 425.704 99.7602 429.095 103.151C432.485 106.541 434.39 111.14 434.39 115.935Z" fill="#0084FF" stroke="#263238" stroke-width="1.10311" stroke-miterlimit="10"/>
<path d="M270.631 110.907C270.243 111.295 269.749 111.56 269.211 111.668C268.672 111.775 268.114 111.721 267.607 111.511C267.099 111.301 266.666 110.946 266.361 110.489C266.055 110.033 265.893 109.496 265.893 108.947C265.893 108.398 266.055 107.862 266.361 107.405C266.666 106.949 267.099 106.593 267.607 106.383C268.114 106.174 268.672 106.119 269.211 106.227C269.749 106.334 270.243 106.599 270.631 106.988C271.147 107.509 271.437 108.213 271.437 108.947C271.437 109.681 271.147 110.385 270.631 110.907Z" fill="#263238"/>
<path d="M283.486 110.907C283.098 111.295 282.604 111.56 282.065 111.668C281.527 111.775 280.969 111.721 280.462 111.511C279.954 111.301 279.521 110.946 279.215 110.489C278.91 110.033 278.747 109.496 278.747 108.947C278.747 108.398 278.91 107.862 279.215 107.405C279.521 106.949 279.954 106.593 280.462 106.383C280.969 106.174 281.527 106.119 282.065 106.227C282.604 106.334 283.098 106.599 283.486 106.988C284.002 107.509 284.291 108.213 284.291 108.947C284.291 109.681 284.002 110.385 283.486 110.907Z" fill="#263238"/>
<path d="M296.341 110.907C295.953 111.295 295.459 111.56 294.92 111.668C294.382 111.775 293.824 111.721 293.316 111.511C292.809 111.301 292.375 110.946 292.07 110.489C291.765 110.033 291.602 109.496 291.602 108.947C291.602 108.398 291.765 107.862 292.07 107.405C292.375 106.949 292.809 106.593 293.316 106.383C293.824 106.174 294.382 106.119 294.92 106.227C295.459 106.334 295.953 106.599 296.341 106.988C296.857 107.509 297.146 108.213 297.146 108.947C297.146 109.681 296.857 110.385 296.341 110.907Z" fill="#263238"/>
<path d="M317.414 129.923H254.667V184.162H317.414V129.923Z" stroke="#263238" stroke-width="1.10311" stroke-linecap="round" stroke-linejoin="round" stroke-dasharray="4.41 4.41"/>
<path d="M399.317 129.923H327.102V133.738H399.317V129.923Z" fill="#263238"/>
<path d="M382.497 137.818H327.102V141.622H382.497V137.818Z" fill="#263238"/>
<path d="M409.582 145.679H327.102V149.529H409.582V145.679Z" fill="#263238"/>
<path d="M397.34 153.343H327.102V157.193H397.34V153.343Z" fill="#263238"/>
<path d="M439.638 283.833H404.323C400.154 283.833 396.774 287.212 396.774 291.381V312.108C396.774 316.277 400.154 319.657 404.323 319.657H439.638C443.807 319.657 447.187 316.277 447.187 312.108V291.381C447.187 287.212 443.807 283.833 439.638 283.833Z" fill="white" stroke="#263238" stroke-width="1.10311" stroke-linecap="round" stroke-linejoin="round"/>
<path d="M413.039 294.607L403.34 300.687L412.345 308.664" stroke="#263238" stroke-width="1.10311" stroke-linecap="round" stroke-linejoin="round"/>
<path d="M430.703 309.242L439.419 301.82L429.362 295.231" stroke="#263238" stroke-width="1.10311" stroke-linecap="round" stroke-linejoin="round"/>
<path d="M417.755 313.819L424.911 291.37" stroke="#263238" stroke-width="1.10311" stroke-linecap="round" stroke-linejoin="round"/>
<path d="M343.17 509.183C343.17 509.183 309.646 518.79 304.964 520.454C300.71 521.957 289.173 526.003 280.515 524.743C279.679 524.623 278.853 524.445 278.041 524.211C269.267 521.599 265.325 519.16 264.169 513.645C263.013 508.131 267.383 504.062 271.591 501.461C275.798 498.86 298.618 496.144 298.618 496.144L304.132 497.762L343.17 509.183Z" fill="#793300"/>
<path d="M280.515 524.743C279.679 524.623 278.853 524.445 278.041 524.211C269.267 521.599 265.325 519.16 264.169 513.645C263.013 508.131 267.383 504.062 271.591 501.461C275.798 498.86 298.618 496.144 298.618 496.144L304.132 497.762C299.138 500.074 280.55 501.334 276.492 503.669C272.435 506.004 270.481 510.397 272.874 516.385C274.157 519.506 277.579 522.57 280.515 524.743Z" fill="white"/>
<path d="M338.13 510.547C338.13 510.547 312.952 517.067 302.964 521.24C292.977 525.414 273.937 527.24 267.128 518.639C260.32 510.039 266.342 502.617 273.128 500.964C279.914 499.311 293.636 496.71 301.126 497.762" stroke="#263238" stroke-width="1.10311" stroke-linecap="round" stroke-linejoin="round"/>
<path d="M281.012 524.292C281.012 524.292 268.204 517.264 272.458 507.415C275.602 500.155 292.688 501.727 301.15 497.762" stroke="#263238" stroke-width="1.10311" stroke-linecap="round" stroke-linejoin="round"/>
<path d="M445.28 526.304C444.933 529.772 443.719 533.02 440.251 535.066C437.939 536.43 434.656 537.239 429.951 537.193C418.195 537.043 396.092 528.639 396.092 528.639L375.399 517.194L386.162 500.167L389.11 495.543L396.716 497.253C396.716 497.253 403.016 500.825 409.351 503.669C415.686 506.513 431.072 507.137 436.494 511.495C441.916 515.853 445.869 520.593 445.28 526.304Z" fill="#008CFF"/>
<path d="M445.28 526.304C444.933 529.772 443.719 533.02 440.251 535.066C441.25 531.657 441.046 528.008 439.673 524.732C437.361 519.541 429.835 514.963 419.94 514.2C410.045 513.437 402.473 508.813 398.508 506.744C395.41 505.137 388.878 501.623 386.162 500.167L389.11 495.543L396.716 497.253C396.716 497.253 403.016 500.825 409.351 503.669C415.686 506.513 431.072 507.137 436.494 511.495C441.916 515.853 445.869 520.593 445.28 526.304Z" fill="white"/>
<path d="M379.989 520.408C394.884 529.066 411.346 534.688 428.425 536.95C432.194 537.401 436.575 537.471 439.095 534.638C439.766 533.82 440.265 532.876 440.562 531.861C440.86 530.846 440.951 529.782 440.829 528.731C440.378 523.414 435.904 519.206 431.003 517.09C426.102 514.975 420.703 514.489 415.49 513.322C410.305 512.153 405.292 510.319 400.577 507.865C396.832 505.912 393.213 503.542 389.086 502.663C384.96 501.785 380.047 502.848 377.839 506.455" fill="#793300"/>
<path d="M379.989 520.408C394.884 529.066 411.346 534.688 428.425 536.95C432.194 537.401 436.575 537.471 439.095 534.638C439.766 533.82 440.265 532.876 440.562 531.861C440.86 530.846 440.951 529.782 440.829 528.731C440.378 523.414 435.904 519.206 431.003 517.09C426.102 514.975 420.703 514.489 415.49 513.322C410.305 512.153 405.292 510.319 400.577 507.865C396.832 505.912 393.213 503.542 389.086 502.663C384.96 501.785 380.047 502.848 377.839 506.455" stroke="#263238" stroke-width="1.10311" stroke-linecap="round" stroke-linejoin="round"/>
<path d="M437.708 536.083C439.645 535.156 441.338 533.789 442.653 532.091C443.967 530.393 444.867 528.411 445.28 526.304C446.031 521.298 443.176 516.258 439.164 513.183C435.153 510.108 430.125 508.652 425.165 507.623C420.206 506.594 415.131 505.9 410.38 504.016C403.132 501.172 395.976 495.577 388.416 497.577" stroke="#263238" stroke-width="1.10311" stroke-linecap="round" stroke-linejoin="round"/>
<path d="M403.34 341.321L368.325 328.003L367.885 327.83C367.885 327.83 368.013 326.905 368.117 325.518C368.336 322.721 368.452 318.166 367.134 316.628C365.18 314.316 359.655 316.258 354.256 313.785C348.858 311.311 338.881 315.738 338.881 315.738C338.881 315.738 331.668 314.409 328.477 319.611C326.859 323.807 327.414 330.015 327.414 330.015L326.755 330.246C322.582 331.807 299.878 340.35 295.081 343.783C289.774 347.54 283.902 386.116 282.018 397.444C280.133 408.773 276.781 418.981 278.48 422.876C280.18 426.772 304.571 445.557 318.605 450.401C332.639 455.244 382.405 453.869 382.405 453.869C382.405 453.869 383.214 453.649 384.659 453.187C393.075 450.482 422.934 439.315 438.783 413.097C438.806 413.143 423.454 362.822 403.34 341.321ZM308.733 406.207C306.155 408.033 307.577 415.108 307.577 415.108L303.196 411.247L314.201 384.185L318.894 404.993C318.894 404.993 311.311 404.392 308.733 406.207ZM396.774 423.397C395.56 424.021 400.242 411.016 398.022 408.068C395.803 405.12 389.11 405.398 389.11 405.398L389.676 401.849L393.641 381.503L394.959 379.943C394.959 379.943 408.577 403.282 411.016 411.513C411.016 411.536 396.173 423.397 396.774 423.397Z" fill="#F7FF00"/>
<path d="M337.228 256.921L319.149 276.111C319.149 276.111 316.663 278.319 317.646 283.879C318.628 289.439 320.94 294.283 322.686 294.607C324.068 294.849 325.468 294.972 326.871 294.977C326.871 294.977 330.743 303.369 333.494 306.664C333.494 306.664 334.442 319.622 333.934 323.218C333.934 323.218 340.43 328.894 346.546 329.61C352.661 330.327 362.105 320.963 362.105 320.963L364.417 309.496C364.417 309.496 369.966 301.08 370.336 298.838C370.706 296.595 373.249 297.173 374.498 296.063C375.746 294.953 378.625 290.017 379.122 285.347C379.619 280.677 379.63 275.313 374.209 276.885C369.504 275.625 372.452 265.683 372.452 265.683L364.186 258.401L337.228 256.921Z" fill="white"/>
<path opacity="0.5" d="M368.325 328.003C368.052 328.718 367.739 329.416 367.388 330.096C364.406 335.714 351.412 346.43 351.412 346.43L347.482 334.35L345.332 346.43C340.997 344.534 327.772 333.078 327.772 333.078C327.772 333.078 327.321 332.003 326.778 330.327L327.437 330.096C327.437 330.096 326.882 323.842 328.501 319.692C331.668 314.49 338.905 315.819 338.905 315.819C338.905 315.819 348.881 311.392 354.279 313.866C359.678 316.339 365.204 314.42 367.157 316.709C369.111 318.998 367.909 327.876 367.909 327.876L368.325 328.003Z" fill="white"/>
<path opacity="0.2" d="M403.34 341.321L368.325 328.003L367.885 327.83C367.885 327.83 368.013 326.905 368.117 325.518L367.388 330.061L362.209 337.09C367.746 339.128 373.15 341.506 378.393 344.211C380.903 345.555 382.951 347.623 384.271 350.147C385.59 352.67 386.12 355.532 385.792 358.36L379.341 413.559L376.694 444.898L384.682 453.187C393.098 450.482 422.957 439.315 438.806 413.097C438.806 413.143 423.454 362.822 403.34 341.321ZM396.774 423.397C395.56 424.021 400.242 411.016 398.022 408.068C395.803 405.12 389.11 405.398 389.11 405.398L389.676 401.849L393.641 381.503L394.959 379.943C394.959 379.943 408.577 403.282 411.016 411.513C411.016 411.536 396.173 423.397 396.774 423.397Z" fill="black"/>
<path opacity="0.2" d="M321.218 408.068L315.773 389.873C315.773 389.873 306.005 356.568 299.312 348.361L301.069 371.781C301.069 371.781 295.289 399.756 290.006 408.068C284.723 416.38 283.544 418.472 290.006 418.472C296.468 418.472 312.201 431.003 312.201 431.003L310.987 420.599L321.218 408.068ZM307.496 415.108L303.115 411.247L314.12 384.185L318.813 404.993C318.813 404.993 311.276 404.427 308.698 406.242C306.12 408.056 307.496 415.108 307.496 415.108Z" fill="black"/>
<path d="M333.494 306.664C333.494 306.664 334.489 316.478 333.494 320.963" stroke="#263238" stroke-width="1.10311" stroke-linecap="round" stroke-linejoin="round"/>
<path d="M363.111 319.646C363.122 316.49 363.486 313.345 364.198 310.27" stroke="#263238" stroke-width="1.10311" stroke-linecap="round" stroke-linejoin="round"/>
<path d="M365.735 264.238C365.735 264.238 371.677 271.695 371.365 277.336C371.053 282.977 370.614 289.659 370.764 296.202C370.914 302.745 360.256 316.455 354.776 317.669C349.297 318.883 344.58 319.195 341.078 315.692C337.575 312.189 334.072 307.323 329.518 301.08C324.963 294.838 326.05 281.139 326.05 281.139" stroke="#263238" stroke-width="1.10311" stroke-linecap="round" stroke-linejoin="round"/>
<path d="M351.424 286.353C351.062 288.401 350.907 290.481 350.962 292.56C350.842 294.313 351.387 296.046 352.488 297.416C353.146 298.086 354.094 298.629 354.222 299.554C354.218 299.971 354.103 300.378 353.887 300.734C353.671 301.09 353.364 301.382 352.996 301.577C352.255 301.951 351.54 302.376 350.858 302.849" stroke="#263238" stroke-width="1.10311" stroke-linecap="round" stroke-linejoin="round"/>
<path d="M342.026 303.566C342.026 303.566 342.708 307.993 348.638 308.918" stroke="#263238" stroke-width="1.10311" stroke-linecap="round" stroke-linejoin="round"/>
<path d="M342.638 289.728C342.638 291.011 342.083 292.04 341.401 292.04C340.719 292.04 340.165 291.011 340.165 289.728C340.165 288.445 340.719 287.416 341.401 287.416C342.083 287.416 342.638 288.457 342.638 289.728Z" fill="#263238"/>
<path d="M360.337 290.283C360.337 291.566 359.782 292.595 359.1 292.595C358.418 292.595 357.863 291.555 357.863 290.283C357.863 289.012 358.418 287.971 359.1 287.971C359.782 287.971 360.337 289 360.337 290.283Z" fill="#263238"/>
<path d="M356.765 284.677C356.765 284.677 362.545 278.897 367.388 285.347" stroke="#263238" stroke-width="2.20621" stroke-linecap="round" stroke-linejoin="round"/>
<path d="M344.592 284.792C344.592 284.792 340.939 280.7 335.182 284.792" stroke="#263238" stroke-width="2.20621" stroke-linecap="round" stroke-linejoin="round"/>
<path d="M333.934 312.12C333.934 312.12 337.46 321.83 345.332 324.593C353.204 327.356 363.654 313.033 363.654 313.033L363.111 311.172C363.111 311.172 356.256 320.073 348.638 318.559C341.02 317.045 333.494 306.71 333.494 306.71L333.934 312.12Z" fill="#263238"/>
<path d="M326.871 294.607C326.871 294.607 322.177 296.26 320.929 292.607C319.68 288.954 315.403 279.324 319.148 276.111C322.894 272.897 325.9 280.353 325.9 280.353" stroke="#263238" stroke-width="1.10311" stroke-linecap="round" stroke-linejoin="round"/>
<path d="M370.752 296.595C370.752 296.595 375.11 297.473 376.359 293.821C377.607 290.168 381.885 280.538 378.139 277.324C374.394 274.111 371.388 281.567 371.388 281.567" stroke="#263238" stroke-width="1.10311" stroke-linecap="round" stroke-linejoin="round"/>
<path d="M325.9 289.728C327.53 289.471 329.001 288.603 330.015 287.301C330.634 286.157 331.026 284.905 331.171 283.613C331.6 281.155 331.817 278.664 331.818 276.168C331.767 275.193 331.857 274.216 332.084 273.267C332.431 272.311 332.966 271.435 333.656 270.689C335.286 268.77 337.263 267.152 338.824 265.163C339.66 264.225 340.297 263.126 340.694 261.933C341.092 260.741 341.242 259.48 341.136 258.227C344.712 261.176 348.891 263.305 353.379 264.466C357.866 265.626 362.554 265.789 367.111 264.944C375.376 263.325 383.295 256.077 382.335 246.968C382.154 245.441 381.499 244.008 380.463 242.872C379.426 241.736 378.06 240.953 376.555 240.633C372.475 239.616 368.81 241.789 365.111 243.188C358.372 245.731 351.771 241.361 344.962 240.633C339.182 239.997 331.98 240.725 328.951 246.517C328.951 246.517 318.547 247.742 313.923 256.343C309.299 264.944 318.05 276.839 318.05 276.839C318.05 276.839 321.518 272.585 326.061 281.185L325.9 289.728Z" fill="#263238"/>
<path d="M366.452 262.042C366.452 262.042 363.747 276.145 370.81 282.977C370.81 282.977 372.359 278.735 373.92 277.694C375.045 275.191 375.521 272.445 375.305 269.71C375.089 266.974 374.187 264.337 372.683 262.042C367.458 253.834 366.452 262.042 366.452 262.042Z" fill="#263238"/>
<path opacity="0.2" d="M379.33 245.997C378.71 247.921 377.658 249.678 376.256 251.135C374.854 252.591 373.137 253.708 371.238 254.401C361.435 258.401 351.921 253.973 342.095 253.106C334.084 252.389 325.241 259.626 324.674 267.857" stroke="white" stroke-width="1.10311" stroke-linecap="round" stroke-linejoin="round"/>
<path opacity="0.2" d="M318.628 265.683C318.748 262.436 319.79 259.289 321.633 256.611C323.475 253.934 326.042 251.836 329.032 250.563" stroke="white" stroke-width="1.10311" stroke-linecap="round" stroke-linejoin="round"/>
<path d="M331.229 319.646C335.54 324.138 340.741 327.682 346.499 330.05C346.499 330.05 358.233 326.639 364.198 318.49" stroke="#263238" stroke-width="1.10311" stroke-linecap="round" stroke-linejoin="round"/>
<path d="M343.22 299.141C348.431 296.751 350.717 290.589 348.327 285.377C345.937 280.166 339.775 277.879 334.564 280.27C329.352 282.66 327.066 288.822 329.456 294.033C331.846 299.244 338.008 301.531 343.22 299.141Z" stroke="#263238" stroke-width="1.10311" stroke-linecap="round" stroke-linejoin="round"/>
<path d="M363.335 300.055C369.026 299.356 373.072 294.177 372.374 288.486C371.675 282.796 366.495 278.749 360.805 279.448C355.115 280.146 351.068 285.326 351.767 291.016C352.465 296.707 357.645 300.753 363.335 300.055Z" stroke="#263238" stroke-width="1.10311" stroke-linecap="round" stroke-linejoin="round"/>
<path d="M333.494 315.773C332.443 316.049 331.457 316.534 330.597 317.2C329.737 317.865 329.02 318.697 328.489 319.646C326.651 322.882 327.761 333.067 327.761 333.067C327.761 333.067 337.251 342.453 345.332 346.419L347.713 333.02L351.412 346.419C351.412 346.419 363.92 337.575 367.388 330.096C367.388 330.096 368.544 321.368 367.388 318.536C367.126 317.749 366.625 317.063 365.957 316.573C365.288 316.082 364.484 315.811 363.654 315.796" stroke="#263238" stroke-width="1.10311" stroke-linecap="round" stroke-linejoin="round"/>
<path d="M318.628 405.409C318.628 405.409 314.918 380.555 309.981 370.417" stroke="#263238" stroke-width="1.10311" stroke-linecap="round" stroke-linejoin="round"/>
<path d="M299.312 348.361C302.185 352.445 304.751 356.738 306.987 361.204" stroke="#263238" stroke-width="1.10311" stroke-linecap="round" stroke-linejoin="round"/>
<path d="M396.774 366.914C397.771 362.759 399.136 358.701 400.855 354.788" stroke="#263238" stroke-width="1.10311" stroke-linecap="round" stroke-linejoin="round"/>
<path d="M389.11 405.409C389.11 405.409 391.78 388.37 394.971 374.336" stroke="#263238" stroke-width="1.10311" stroke-linecap="round" stroke-linejoin="round"/>
<path d="M393.641 381.48C396.222 378.058 399.852 375.573 403.976 374.405" stroke="#263238" stroke-width="1.10311" stroke-linecap="round" stroke-linejoin="round"/>
<path d="M367.897 327.83C367.897 327.83 389.433 336.442 403.34 341.332C403.34 341.332 420.449 357.412 438.794 413.143C438.794 413.143 421.986 441.419 390.011 450.482" stroke="#263238" stroke-width="1.10311" stroke-linecap="round" stroke-linejoin="round"/>
<path d="M395.56 424.402L411.016 411.536C411.016 411.536 419.189 405.328 427.685 409.571" stroke="#263238" stroke-width="1.10311" stroke-linecap="round" stroke-linejoin="round"/>
<path d="M394.971 379.943C394.971 379.943 407.744 398.82 411.016 411.536" stroke="#263238" stroke-width="1.10311" stroke-linecap="round" stroke-linejoin="round"/>
<path d="M307.669 415.825L303.149 411.536C303.149 411.536 296.445 410.38 288.838 415.455" stroke="#263238" stroke-width="1.10311" stroke-linecap="round" stroke-linejoin="round"/>
<path d="M303.149 411.536C303.149 411.536 308.768 393.04 314.305 383.572" stroke="#263238" stroke-width="1.10311" stroke-linecap="round" stroke-linejoin="round"/>
<path d="M327.437 330.096C327.437 330.096 296.445 341.725 293.404 345.124C290.364 348.522 278.816 413.547 278.504 420.992C278.238 427.651 302.375 442.598 314.34 448.898" stroke="#263238" stroke-width="1.10311" stroke-linecap="round" stroke-linejoin="round"/>
<path d="M350.615 352.071C350.615 352.476 350.495 352.872 350.27 353.208C350.045 353.545 349.726 353.807 349.352 353.962C348.978 354.117 348.566 354.157 348.17 354.078C347.773 353.999 347.408 353.804 347.122 353.518C346.836 353.232 346.641 352.867 346.562 352.471C346.483 352.074 346.523 351.662 346.678 351.288C346.833 350.914 347.095 350.595 347.432 350.37C347.768 350.145 348.164 350.025 348.569 350.025C348.838 350.024 349.105 350.076 349.354 350.178C349.602 350.28 349.829 350.431 350.019 350.621C350.209 350.811 350.36 351.038 350.462 351.287C350.564 351.535 350.616 351.802 350.615 352.071Z" fill="#263238"/>
<path d="M386.474 460.99H315.958C315.52 460.99 315.099 460.816 314.789 460.506C314.479 460.196 314.305 459.775 314.305 459.337C314.305 458.898 314.479 458.478 314.789 458.168C315.099 457.858 315.52 457.684 315.958 457.684H386.474C386.912 457.684 387.333 457.858 387.643 458.168C387.953 458.478 388.127 458.898 388.127 459.337C388.127 459.775 387.953 460.196 387.643 460.506C387.333 460.816 386.912 460.99 386.474 460.99Z" fill="#263238"/>
<path d="M388.948 455.464L398.392 411.074C398.539 410.385 398.53 409.673 398.365 408.989C398.201 408.305 397.885 407.666 397.442 407.119C396.998 406.573 396.438 406.133 395.803 405.831C395.167 405.529 394.472 405.373 393.768 405.375H311.345C310.648 405.375 309.959 405.53 309.328 405.828C308.698 406.127 308.141 406.562 307.699 407.101C307.256 407.641 306.939 408.272 306.77 408.949C306.601 409.626 306.585 410.332 306.721 411.016L315.195 453.927C315.403 454.98 315.964 455.932 316.786 456.623C317.608 457.315 318.641 457.705 319.715 457.73L384.208 459.209C385.311 459.234 386.387 458.873 387.252 458.19C388.117 457.506 388.717 456.542 388.948 455.464Z" fill="white" stroke="#263238" stroke-width="1.10311" stroke-linecap="round" stroke-linejoin="round"/>
<path d="M358.869 430.991C358.866 432.292 358.479 433.562 357.754 434.643C357.03 435.723 356.002 436.564 354.8 437.06C353.598 437.556 352.276 437.685 351.001 437.43C349.726 437.175 348.555 436.547 347.636 435.627C346.717 434.707 346.092 433.535 345.839 432.259C345.586 430.983 345.717 429.661 346.215 428.46C346.713 427.259 347.556 426.232 348.638 425.51C349.719 424.788 350.991 424.402 352.291 424.402C353.156 424.402 354.012 424.573 354.811 424.904C355.61 425.235 356.335 425.721 356.946 426.333C357.557 426.945 358.041 427.671 358.371 428.471C358.701 429.27 358.87 430.127 358.869 430.991Z" fill="#263238"/>
<path d="M371.804 409.617H381.596" stroke="#263238" stroke-width="1.10311" stroke-linecap="round" stroke-linejoin="round"/>
<path d="M325.044 409.617H362.209" stroke="#263238" stroke-width="1.10311" stroke-linecap="round" stroke-linejoin="round"/>
<path d="M389.11 502.594L381.596 522.315C381.596 522.315 362.429 517.483 337.887 512.455C312.213 507.195 285.405 500.386 271.498 475.983C269.81 473.012 268.678 469.498 269.475 466.169C271.475 457.741 282.445 455.452 289.67 454.609C294.213 454.117 298.777 453.863 303.346 453.846C305.658 453.846 313.345 452.586 315.207 453.961C318.003 456.001 320.987 457.77 324.119 459.244C328.223 460.99 388.127 457.684 388.127 457.684C389.169 455.411 389.807 452.974 390.011 450.482C399.433 445.696 421.223 441.65 430.471 443.442C444.956 446.251 453.406 454.701 451.799 463.556C450.193 472.411 418.195 496.155 389.11 502.594Z" fill="#263238"/>
<path d="M389.11 502.594C389.11 502.594 370.88 497.762 355.99 487.705C341.101 477.648 329.472 465.972 308.721 468.388" stroke="white" stroke-width="1.10311" stroke-linecap="round" stroke-linejoin="round"/>
<path d="M352.58 485.335C361.99 482.63 368.891 476.538 376.44 470.7C384.402 464.31 392.952 458.69 401.976 453.915" stroke="white" stroke-width="1.10311" stroke-linecap="round" stroke-linejoin="round"/>
<path d="M349.262 291.37H352.025" stroke="#263238" stroke-width="1.10311" stroke-linecap="round" stroke-linejoin="round"/>
</svg>
